<svg id="Layer_1" data-name="Layer 1" xmlns="http://www.w3.org/2000/svg" viewBox="0 0 35.8 55.48"><path d="M24.31,29.39a12.49,12.49,0,0,1-6.15-4.34,11.27,11.27,0,0,1-2-6.74,13.18,13.18,0,0,1,4.26-10q4.26-4.05,11.34-4T43.21,8.43a13.39,13.39,0,0,1,4.34,10.06,11,11,0,0,1-2,6.58,12.46,12.46,0,0,1-6,4.32,14.61,14.61,0,0,1,7.62,5.26,14.46,14.46,0,0,1,2.61,8.67A15.62,15.62,0,0,1,44.84,55q-4.92,4.74-13,4.74T18.9,55A15.84,15.84,0,0,1,14,43.14a14.33,14.33,0,0,1,2.69-8.88A13.44,13.44,0,0,1,24.31,29.39ZM20.83,43.18a12.09,12.09,0,0,0,1.35,5.52,9.49,9.49,0,0,0,4,4.13,11.7,11.7,0,0,0,5.74,1.46,10.78,10.78,0,0,0,7.9-3.07A10.55,10.55,0,0,0,43,43.4a10.73,10.73,0,0,0-3.2-8,11,11,0,0,0-8-3.15,10.6,10.6,0,0,0-10.89,10.9ZM23,18.08a8.48,8.48,0,0,0,2.48,6.31,8.78,8.78,0,0,0,6.45,2.44,8.63,8.63,0,0,0,6.32-2.43,8,8,0,0,0,2.46-5.94,8.35,8.35,0,0,0-2.54-6.18,8.67,8.67,0,0,0-6.32-2.5,8.73,8.73,0,0,0-6.33,2.45A7.83,7.83,0,0,0,23,18.08Z" transform="translate(-13.97 -4.3)"/></svg>