<svg id="Layer_1" data-name="Layer 1" xmlns="http://www.w3.org/2000/svg" viewBox="0 0 36.03 54.52"><path d="M14,44.62l7-.59q.78,5.11,3.61,7.69a9.8,9.8,0,0,0,6.84,2.57,10.64,10.64,0,0,0,8.15-3.63Q43,47,43,41q0-5.72-3.21-9a11.15,11.15,0,0,0-8.39-3.3,11.6,11.6,0,0,0-5.82,1.47A11.3,11.3,0,0,0,21.49,34l-6.26-.81L20.49,5.26h27v6.38H25.83L22.9,26.24a17.69,17.69,0,0,1,10.27-3.41,16.27,16.27,0,0,1,12,4.93,17.22,17.22,0,0,1,4.89,12.67,19.81,19.81,0,0,1-4.3,12.75q-5.22,6.6-14.27,6.6-7.41,0-12.1-4.15A16.22,16.22,0,0,1,14,44.62Z" transform="translate(-14.04 -5.26)"/></svg>