<svg id="Layer_1" data-name="Layer 1" xmlns="http://www.w3.org/2000/svg" viewBox="0 0 28.12 41.23"><path d="M21.84,41.25q-.87,0-1-.66a8.54,8.54,0,0,1-.12-1.43V22.85H5.61c-1.09,0-1.72-.22-1.91-.66a3.66,3.66,0,0,1-.26-1.43V2.05A5.16,5.16,0,0,1,3.59.69c.1-.43.43-.64,1-.64a.8.8,0,0,1,.89.67,7.39,7.39,0,0,1,.12,1.33V20.76H20.74V2.12A6.85,6.85,0,0,1,20.86.69c.08-.44.41-.65,1-.65a.8.8,0,0,1,.9.65,6.86,6.86,0,0,1,.13,1.43V20.76h6.53a8.14,8.14,0,0,1,1.56.12c.39.08.58.41.58,1a.8.8,0,0,1-.71.81,7.75,7.75,0,0,1-1.73.17H22.88V39.15a6.54,6.54,0,0,1-.13,1.47A.8.8,0,0,1,21.84,41.25Z" transform="translate(-3.44 -0.03)"/></svg>