<svg id="Layer_1" data-name="Layer 1" xmlns="http://www.w3.org/2000/svg" viewBox="0 0 19.45 41.23"><path d="M27.22,22.84V39.15a6.55,6.55,0,0,1-.14,1.47.79.79,0,0,1-.91.63c-.58,0-.9-.22-1-.66a8.54,8.54,0,0,1-.12-1.43V22.85H10c-1.09,0-1.73-.22-1.91-.66a3.86,3.86,0,0,1-.27-1.43V2.05A6.16,6.16,0,0,1,7.92.69c.1-.43.44-.64,1-.64a.81.81,0,0,1,.89.67A7.39,7.39,0,0,1,10,2.05V20.76H25.07V2.12A8.54,8.54,0,0,1,25.19.69c.08-.44.41-.65,1-.65a.8.8,0,0,1,.9.65,6.87,6.87,0,0,1,.14,1.43V20.76" transform="translate(-7.77 -0.03)"/></svg>