<svg id="Layer_1" data-name="Layer 1" xmlns="http://www.w3.org/2000/svg" viewBox="0 0 33.27 49.36"><path d="M13.75,25.74A19.51,19.51,0,0,1,15,18.68a16.73,16.73,0,0,1,3.47-5.56,15.92,15.92,0,0,1,5.27-3.63,16.74,16.74,0,0,1,6.6-1.29,18.57,18.57,0,0,1,3.43.35,20.37,20.37,0,0,1,3.61,1.08,21.14,21.14,0,0,1,3.46,1.81A14,14,0,0,1,43.77,14a11.65,11.65,0,0,1,2,3.26,10.55,10.55,0,0,1,.81,4,2.9,2.9,0,0,1,.26.53,2.12,2.12,0,0,1,.14.8v8.59c0,.94,0,1.85,0,2.73s0,1.76-.08,2.64-.07,1.53-.11,2.3,0,1.64,0,2.61q0,3.32.14,6.84T47,55.15a1.92,1.92,0,0,1-.34,1.14,2.62,2.62,0,0,1-.82.74,3.44,3.44,0,0,1-1,.4,4,4,0,0,1-.94.13A4.39,4.39,0,0,1,41.5,57a2.45,2.45,0,0,1-.85-2.19l.47-11.62V40.54c0-1.12,0-2.51.06-4.2a12,12,0,0,1-2,2.13,13.84,13.84,0,0,1-2.61,1.79,15.65,15.65,0,0,1-3.07,1.24,12.8,12.8,0,0,1-3.4.46,15.9,15.9,0,0,1-12.08-5.24,16.59,16.59,0,0,1-3.21-5.22A15.92,15.92,0,0,1,13.75,25.74Zm5.71-.68a13.2,13.2,0,0,0,.65,4,10.91,10.91,0,0,0,2,3.69,10.71,10.71,0,0,0,3.48,2.7,11.16,11.16,0,0,0,5,1.05,9.31,9.31,0,0,0,3.42-.69,10.5,10.5,0,0,0,3.2-2,10.39,10.39,0,0,0,2.35-3.13,9.35,9.35,0,0,0,.91-4.16,6.17,6.17,0,0,1,.11-1.11c.07-.43.17-.88.29-1.36s.26-.94.4-1.42.3-.89.46-1.26a9.22,9.22,0,0,0-1.57-3.48,10.74,10.74,0,0,0-2.55-2.49,11.11,11.11,0,0,0-3-1.48,10.28,10.28,0,0,0-3-.49,14.13,14.13,0,0,0-4.6.75,11.63,11.63,0,0,0-3.88,2.24,10.76,10.76,0,0,0-2.67,3.66A12,12,0,0,0,19.46,25.06Z" transform="translate(-13.75 -8.2)"/></svg>