<svg id="Layer_1" data-name="Layer 1" xmlns="http://www.w3.org/2000/svg" viewBox="0 0 29.42 45.83"><path d="M30,37.36a13.71,13.71,0,0,1-4.85-.85,11.8,11.8,0,0,1-4-2.51,12.22,12.22,0,0,1-2.77-4.08,14.25,14.25,0,0,1-1-5.56,14.14,14.14,0,0,1,1.1-5.56,13.8,13.8,0,0,1,3.1-4.53,14.64,14.64,0,0,1,4.75-3,16,16,0,0,1,6-1.11,15.55,15.55,0,0,1,5.91,1.08,13.13,13.13,0,0,1,4.56,3,13.28,13.28,0,0,1,2.92,4.62,16.39,16.39,0,0,1,1,5.94,18.49,18.49,0,0,1-.36,3.72,18.89,18.89,0,0,1-1.06,3.43,28,28,0,0,1-1.66,3.34c-.64,1.11-1.38,2.25-2.2,3.43l-11,15.94a2.76,2.76,0,0,1-1.17,1,4,4,0,0,1-1.74.36H22.33L36.13,37.9q.69-.91,1.29-1.74c.4-.55.78-1.09,1.14-1.64a12.71,12.71,0,0,1-3.92,2.12A14.7,14.7,0,0,1,30,37.36ZM41.34,24.11a10.26,10.26,0,0,0-.68-3.84,8.44,8.44,0,0,0-1.88-2.93,8.16,8.16,0,0,0-2.86-1.85,10,10,0,0,0-3.65-.65,10.39,10.39,0,0,0-3.82.68,8.6,8.6,0,0,0-2.94,1.89,8.27,8.27,0,0,0-1.88,2.87A9.94,9.94,0,0,0,23,24a11.23,11.23,0,0,0,.61,3.85,7.86,7.86,0,0,0,1.77,2.86,7.44,7.44,0,0,0,2.82,1.77,10.91,10.91,0,0,0,3.72.6,10.38,10.38,0,0,0,4-.74,9.15,9.15,0,0,0,3-2,8.39,8.39,0,0,0,1.83-2.85A9.1,9.1,0,0,0,41.34,24.11Z" transform="translate(-17.34 -10.13)"/></svg>