<svg id="Layer_1" data-name="Layer 1" xmlns="http://www.w3.org/2000/svg" viewBox="0 0 35.73 55.48"><path d="M15,46.29l6.42-.59q.81,4.52,3.11,6.56a8.52,8.52,0,0,0,5.89,2,10.14,10.14,0,0,0,5.39-1.4,11.57,11.57,0,0,0,3.8-3.76,22.16,22.16,0,0,0,2.49-6.36,33.89,33.89,0,0,0,1-8.16c0-.29,0-.74,0-1.33a15.2,15.2,0,0,1-5.47,5.17,14.86,14.86,0,0,1-7.5,2,15.2,15.2,0,0,1-11.42-4.89Q14,30.65,14,22.64q0-8.27,4.88-13.3a16.28,16.28,0,0,1,12.21-5,17.44,17.44,0,0,1,9.69,2.85,17.82,17.82,0,0,1,6.67,8.14q2.28,5.28,2.28,15.28,0,10.43-2.26,16.59a19.47,19.47,0,0,1-6.73,9.4,17.38,17.38,0,0,1-10.47,3.22A15.21,15.21,0,0,1,19.9,56.24,15.28,15.28,0,0,1,15,46.29Zm27.32-24q0-5.74-3.06-9.12a9.58,9.58,0,0,0-7.36-3.37,10.15,10.15,0,0,0-7.74,3.63,13.46,13.46,0,0,0-3.3,9.42A11.61,11.61,0,0,0,24,31.3a10.34,10.34,0,0,0,7.73,3.24,9.9,9.9,0,0,0,7.62-3.24C41.36,29.14,42.36,26.14,42.36,22.31Z" transform="translate(-14.04 -4.3)"/></svg>