<svg id="Layer_1" data-name="Layer 1" xmlns="http://www.w3.org/2000/svg" viewBox="0 0 7.1 42.35"><path d="M30.56,55a3.38,3.38,0,0,1-1.83-.46,3.17,3.17,0,0,1-1.12-1.32,7.17,7.17,0,0,1-.61-2,22.4,22.4,0,0,1-.24-2.49q-.06-1.34,0-2.85t0-3.06c0-1.65.06-3.42.18-5.32s.27-3.83.42-5.8.29-4,.42-6S28,21.83,28,20a2.2,2.2,0,0,0-.23-.94c-.15-.32-.33-.65-.52-1A8.61,8.61,0,0,1,26.68,17a3,3,0,0,1-.23-1.16,2.41,2.41,0,0,1,.32-1.14,4.51,4.51,0,0,1,.84-1.07,5.22,5.22,0,0,1,1.08-.77,2.44,2.44,0,0,1,1.09-.29,4.33,4.33,0,0,1,.95.17,4.87,4.87,0,0,1,1.25.55,4.33,4.33,0,0,1,1.09,1,2.44,2.44,0,0,1,.48,1.54c0,2.31-.06,4.71-.18,7.22s-.26,5-.41,7.43-.27,4.81-.4,7.08-.18,4.34-.18,6.2a17.14,17.14,0,0,0,.12,2c.08.69.17,1.4.26,2.13s.19,1.47.27,2.21a20.64,20.64,0,0,1,.12,2.22,2.71,2.71,0,0,1-.69,1.86A2.46,2.46,0,0,1,30.56,55Z" transform="translate(-26.45 -12.61)"/></svg>