<svg id="Layer_1" data-name="Layer 1" xmlns="http://www.w3.org/2000/svg" viewBox="0 0 26.01 58.32"><path d="M45.3,5.34c1.36,0,2,.91,2,2.75a6.37,6.37,0,0,1-1.2,3.24Q41,19.09,35.39,34.56h8.28q1.08,0,1.08,1.14a1.64,1.64,0,0,1-.59,1.22,2,2,0,0,1-1.39.54Q37.83,37,34.68,37h-.19q-2.28,6-4.92,14.13t-3.23,9.47a8.58,8.58,0,0,1-1.16,2.07,2.36,2.36,0,0,1-1.43.83,1.42,1.42,0,0,1-1.33-.9l-.13-.68q0-1.87,1-2.16a70.06,70.06,0,0,0,4.25-11Q30.05,40.8,31.34,37H29.68q-3.75,0-6.31-.19a2.39,2.39,0,0,1-.71.13c-.72,0-1.08-.38-1.08-1.15a1.68,1.68,0,0,1,.77-1.45l5.9,0,4,0a143.41,143.41,0,0,1,10.44-23.6c.17-.28.38-.62.65-1A5.8,5.8,0,0,0,44,8.49L28,8.24a9.12,9.12,0,0,0-2.16.48,9.06,9.06,0,0,1-2.26.48q-2.28,0-2.28-2.13a1.49,1.49,0,0,1,1.08-1.55,11.51,11.51,0,0,1,3.46-.37Z" transform="translate(-21.34 -5.15)"/></svg>