<svg id="Layer_1" data-name="Layer 1" xmlns="http://www.w3.org/2000/svg" viewBox="0 0 35.88 55.48"><path d="M48.66,17.83,42,18.34a12.7,12.7,0,0,0-2.52-5.7,8.83,8.83,0,0,0-6.68-2.86,9.19,9.19,0,0,0-5.59,1.78,15.2,15.2,0,0,0-5,6.71q-1.82,4.41-1.89,12.56a15.48,15.48,0,0,1,5.89-5.44,15.84,15.84,0,0,1,7.31-1.78,15.12,15.12,0,0,1,11.36,4.91q4.68,4.9,4.68,12.69a20.91,20.91,0,0,1-2.2,9.51,16.08,16.08,0,0,1-6.06,6.73,16.62,16.62,0,0,1-8.75,2.33A17.08,17.08,0,0,1,19,53.65q-5.27-6.13-5.26-20.22,0-15.75,5.82-22.91A16.71,16.71,0,0,1,33.24,4.3,15.37,15.37,0,0,1,43.75,7.89,15.26,15.26,0,0,1,48.66,17.83ZM21.42,41.25a15.57,15.57,0,0,0,1.46,6.6,10.91,10.91,0,0,0,4.1,4.8,10.2,10.2,0,0,0,5.52,1.64,9.4,9.4,0,0,0,7.27-3.41q3-3.41,3-9.26c0-3.76-1-6.71-3-8.88a9.86,9.86,0,0,0-7.56-3.24,10.3,10.3,0,0,0-7.67,3.24A11.71,11.71,0,0,0,21.42,41.25Z" transform="translate(-13.75 -4.3)"/></svg>