<svg id="Layer_1" data-name="Layer 1" xmlns="http://www.w3.org/2000/svg" viewBox="0 0 23.31 53.13"><path d="M30.67,59.17a13.64,13.64,0,0,1-6.15-1.45,10.83,10.83,0,0,1-4.4-3.79.65.65,0,0,1,0-.8.82.82,0,0,1,.72-.42.7.7,0,0,1,.5.19,1.62,1.62,0,0,1,.26.34,10.94,10.94,0,0,0,3.91,3.15,11.57,11.57,0,0,0,5.2,1.18,9.46,9.46,0,0,0,7.93-4q3-4,3-11.05a17,17,0,0,0-1.48-7.32,10.78,10.78,0,0,0-4.06-4.75A12,12,0,0,1,32,33.09a12.88,12.88,0,0,1-4.63.87A4.16,4.16,0,0,1,25,33.4a1.84,1.84,0,0,1-.88-1.64,3.69,3.69,0,0,1,2-3.11,8.43,8.43,0,0,1,4.66-1.29,11.53,11.53,0,0,1,4.94,1.06,15.17,15.17,0,0,0,2.5-4.51,18.18,18.18,0,0,0,1-6.27,12.23,12.23,0,0,0-2-7.24A6.14,6.14,0,0,0,32,7.63a6.91,6.91,0,0,0-4.82,1.82,11.22,11.22,0,0,0-3,4.48.79.79,0,0,1-.76.53.87.87,0,0,1-.76-1,11.61,11.61,0,0,1,3.49-5.35A8.69,8.69,0,0,1,32,6a7.69,7.69,0,0,1,6.45,3.23,13.55,13.55,0,0,1,2.43,8.38,19.7,19.7,0,0,1-1,6.68,16.44,16.44,0,0,1-2.69,4.94,13,13,0,0,1,4.44,5.35,18.33,18.33,0,0,1,1.63,7.93q0,7.66-3.45,12.15A11,11,0,0,1,30.67,59.17ZM25.74,31.76c0,.41.53.61,1.59.61a10.94,10.94,0,0,0,3.76-.68,11.3,11.3,0,0,0,3.45-2.05A10,10,0,0,0,30.82,29a7.2,7.2,0,0,0-3.49.87C26.27,30.41,25.74,31.05,25.74,31.76Z" transform="translate(-19.96 -6.03)"/></svg>