<svg id="Layer_1" data-name="Layer 1" xmlns="http://www.w3.org/2000/svg" viewBox="0 0 35.58 55.52"><path d="M14.08,44.51l6.67-.89q1.16,5.67,3.91,8.17a9.64,9.64,0,0,0,6.73,2.5,10.75,10.75,0,0,0,8-3.26A11,11,0,0,0,42.58,43a10.25,10.25,0,0,0-3-7.58,10.42,10.42,0,0,0-7.64-3,19.31,19.31,0,0,0-4.7.74L28,27.28a9.74,9.74,0,0,0,1.07.07,13.8,13.8,0,0,0,7.68-2.22,7.62,7.62,0,0,0,3.4-6.86,8.1,8.1,0,0,0-2.48-6.08,8.83,8.83,0,0,0-6.41-2.41,9.11,9.11,0,0,0-6.49,2.45q-2.59,2.44-3.33,7.34l-6.67-1.19A17.09,17.09,0,0,1,20.31,8,16,16,0,0,1,31.09,4.3a17.64,17.64,0,0,1,8.19,1.91A13.74,13.74,0,0,1,45,11.41a13.41,13.41,0,0,1,2,7,11.46,11.46,0,0,1-1.89,6.41,12.9,12.9,0,0,1-5.59,4.6A12.61,12.61,0,0,1,47,34a14.06,14.06,0,0,1,2.67,8.77,16,16,0,0,1-5.19,12.06,18.24,18.24,0,0,1-13.12,5,17,17,0,0,1-11.88-4.27A16.49,16.49,0,0,1,14.08,44.51Z" transform="translate(-14.08 -4.3)"/></svg>