<svg id="Layer_1" data-name="Layer 1" xmlns="http://www.w3.org/2000/svg" viewBox="0 0 35.92 54.56"><path d="M49.1,52.44v6.41H13.19A11.76,11.76,0,0,1,14,54.22,24.55,24.55,0,0,1,18.36,47a68.18,68.18,0,0,1,8.73-8.22q8.85-7.28,12-11.51c2.08-2.83,3.11-5.51,3.11-8a8.92,8.92,0,0,0-2.83-6.69,10.26,10.26,0,0,0-7.4-2.72,10.38,10.38,0,0,0-7.7,2.89,10.92,10.92,0,0,0-2.93,8L14.45,20q.71-7.67,5.3-11.69t12.34-4q7.83,0,12.38,4.33A14.24,14.24,0,0,1,49,19.38a16.26,16.26,0,0,1-1.33,6.41,25,25,0,0,1-4.43,6.64A108.23,108.23,0,0,1,33,42q-6,5-7.71,6.84a22.25,22.25,0,0,0-2.81,3.61Z" transform="translate(-13.18 -4.3)"/></svg>