<svg id="Layer_1" data-name="Layer 1" xmlns="http://www.w3.org/2000/svg" viewBox="0 0 39.39 61.25"><path d="M41.72,62.46a18.44,18.44,0,0,1-5.09-.83,62.16,62.16,0,0,1-6.11-2.16L23.88,56.7a28.06,28.06,0,0,1-4.52,2.39,11.06,11.06,0,0,1-4.13.87,5.81,5.81,0,0,1-3.72-1.14,3.6,3.6,0,0,1-1.45-3,3.09,3.09,0,0,1,1.37-2.69,7.65,7.65,0,0,1,4.33-1,25.13,25.13,0,0,1,3.68.3c1.34.2,2.77.46,4.29.76a59.06,59.06,0,0,0,7.06-7.67,75.17,75.17,0,0,0,6.56-10,65.66,65.66,0,0,0,4.86-11A33.51,33.51,0,0,0,44.07,14c0-3.8-.76-6.54-2.28-8.24A7.42,7.42,0,0,0,36,3.26a8.32,8.32,0,0,0-5.65,2,12.55,12.55,0,0,0-3.53,5.5,23.72,23.72,0,0,0-1.22,7.82,16.37,16.37,0,0,0,.19,2.62,14.71,14.71,0,0,0,.73,2.54h-.38a7.91,7.91,0,0,1-3.95-2.16A6.61,6.61,0,0,1,20.84,17a15.19,15.19,0,0,1,2.09-7.71A16.3,16.3,0,0,1,28.7,3.45a16.12,16.12,0,0,1,8.54-2.24,11.15,11.15,0,0,1,6.49,1.86A12.37,12.37,0,0,1,47.9,8a16,16,0,0,1,1.48,7,30.34,30.34,0,0,1-1,7.59A46.33,46.33,0,0,1,45.81,30a60.85,60.85,0,0,1-4.93,8.84,80.42,80.42,0,0,1-6.41,8.39,58.72,58.72,0,0,1-7.1,6.9c3.74.81,7,1.48,9.6,2a35.36,35.36,0,0,0,6.72.79,8.66,8.66,0,0,0,2.69-.41A18,18,0,0,0,49.46,55a11.73,11.73,0,0,1-2.85,5.65A6.76,6.76,0,0,1,41.72,62.46ZM15.15,57.91a6.62,6.62,0,0,0,2.66-.65,21.56,21.56,0,0,0,3-1.7c-1.16-.41-2.24-.74-3.22-1a10.71,10.71,0,0,0-2.55-.38,2.69,2.69,0,0,0-2.08.65A1.87,1.87,0,0,0,12.42,56a1.58,1.58,0,0,0,.87,1.37A3.54,3.54,0,0,0,15.15,57.91Z" transform="translate(-10.06 -1.21)"/></svg>