<svg id="Layer_1" data-name="Layer 1" xmlns="http://www.w3.org/2000/svg" viewBox="0 0 35.43 55.48"><path d="M14,32.06q0-9.65,2-15.51a19.28,19.28,0,0,1,5.89-9.07A15.1,15.1,0,0,1,31.76,4.3a16,16,0,0,1,7.67,1.76,14.55,14.55,0,0,1,5.45,5.08,27.11,27.11,0,0,1,3.37,8.08,53.4,53.4,0,0,1,1.22,12.84q0,9.55-2,15.43a19.29,19.29,0,0,1-5.87,9.08,15.06,15.06,0,0,1-9.88,3.21q-7.86,0-12.34-5.63Q14,47.37,14,32.06Zm6.86,0q0,13.38,3.13,17.81t7.73,4.42q4.59,0,7.73-4.44t3.13-17.79q0-13.43-3.13-17.83T31.68,9.82a8.54,8.54,0,0,0-7.33,3.89Q20.9,18.67,20.9,32.06Z" transform="translate(-14.04 -4.3)"/></svg>