<svg id="Layer_1" data-name="Layer 1" xmlns="http://www.w3.org/2000/svg" viewBox="0 0 37.95 56.32"><path d="M32,60.07a15.73,15.73,0,0,1-10.13-3.42,21.26,21.26,0,0,1-6.57-9.71A44,44,0,0,1,13,32,44.33,44.33,0,0,1,15.3,17,21.55,21.55,0,0,1,21.87,7.2,15.64,15.64,0,0,1,32,3.75,15.62,15.62,0,0,1,42.17,7.2,21.73,21.73,0,0,1,48.7,17,44.33,44.33,0,0,1,51,32a44,44,0,0,1-2.28,15,21.43,21.43,0,0,1-6.53,9.71A15.7,15.7,0,0,1,32,60.07Zm-13.66-9L39.59,12.4l6.07.3L24.41,51.42ZM32,53.69A8.91,8.91,0,0,0,38.49,51a17.45,17.45,0,0,0,4.17-7.56A39.75,39.75,0,0,0,44.14,32a40.45,40.45,0,0,0-1.48-11.65,17.41,17.41,0,0,0-4.17-7.55,9.2,9.2,0,0,0-12.94,0,17.35,17.35,0,0,0-4.22,7.55A40.82,40.82,0,0,0,19.86,32a40.12,40.12,0,0,0,1.47,11.5A17.39,17.39,0,0,0,25.55,51,8.94,8.94,0,0,0,32,53.69Z" transform="translate(-13.02 -3.75)"/></svg>