<?xml version="1.0" encoding="utf-8"?>
<!-- Generator: Adobe Illustrator 24.1.2, SVG Export Plug-In . SVG Version: 6.00 Build 0)  -->
<svg version="1.1" id="Layer_1" xmlns="http://www.w3.org/2000/svg" xmlns:xlink="http://www.w3.org/1999/xlink" x="0px" y="0px"
	 viewBox="0 0 64 64" style="enable-background:new 0 0 64 64;" xml:space="preserve">
<style type="text/css">
	.st0{fill:#8AF9CE;stroke:#036858;stroke-width:2;stroke-miterlimit:10;}
	.st1{fill:#8AF9CE;stroke:#E9FAFF;stroke-width:2;stroke-miterlimit:10;}
	.st2{fill:#FFFFFF;}
	.st3{fill:#036858;}
	.st4{fill:#E9FAFF;}
</style>
<path class="st0" d="M52.5,58.5h-41c-3.3,0-6-2.7-6-6v-41c0-3.3,2.7-6,6-6h41c3.3,0,6,2.7,6,6v41C58.5,55.8,55.8,58.5,52.5,58.5z"/>
<path class="st1" d="M11.5,56.5c-2.2,0-4-1.8-4-4v-41c0-2.2,1.8-4,4-4h41c2.2,0,4,1.8,4,4v41c0,2.2-1.8,4-4,4H11.5z"/>
<g>
	<path class="st2" d="M13.5,47c-0.7,0-1.3-0.1-1.7-0.4c-0.5-0.3-0.8-0.7-1-1.3c-0.1-0.4-0.2-0.8-0.2-1.3V19.9c0-1,0.3-1.7,0.8-2.2
		c0.5-0.5,1.2-0.7,2.2-0.7h16c0.5,0,0.9,0.1,1.3,0.2c0.6,0.2,1,0.5,1.3,1.1c0.2,0.4,0.3,1,0.3,1.7c0,0.7-0.1,1.3-0.4,1.7
		c-0.3,0.5-0.7,0.8-1.2,1c-0.4,0.1-0.8,0.2-1.3,0.2H16.4v6.1h8.9c0.5,0,0.9,0.1,1.3,0.2c0.5,0.2,0.9,0.5,1.2,1
		c0.2,0.4,0.3,0.9,0.3,1.6c0,0.7-0.1,1.2-0.3,1.6c-0.3,0.5-0.7,0.8-1.3,1c-0.4,0.1-0.8,0.1-1.2,0.1h-8.8v6.9h13.3
		c0.5,0,0.9,0.1,1.3,0.2c0.5,0.2,1,0.5,1.2,1c0.2,0.4,0.3,1,0.3,1.7c0,0.7-0.1,1.3-0.4,1.7c-0.3,0.5-0.7,0.8-1.2,1
		c-0.4,0.1-0.8,0.2-1.3,0.2H13.5z"/>
	<path class="st3" d="M13.5,45.9c-0.5,0-0.9-0.1-1.2-0.2c-0.3-0.1-0.4-0.4-0.5-0.6c-0.1-0.3-0.1-0.6-0.1-1V19.9
		c0-0.7,0.1-1.1,0.4-1.4c0.3-0.3,0.8-0.4,1.5-0.4h16c0.4,0,0.7,0,1,0.1c0.3,0.1,0.5,0.3,0.6,0.5c0.1,0.3,0.2,0.7,0.2,1.2
		c0,0.5-0.1,0.9-0.2,1.2c-0.1,0.3-0.4,0.4-0.6,0.5c-0.3,0.1-0.6,0.1-1,0.1H15.3V30h10c0.4,0,0.7,0,0.9,0.1c0.3,0.1,0.4,0.2,0.6,0.5
		c0.1,0.2,0.2,0.6,0.2,1.1c0,0.5-0.1,0.8-0.2,1.1c-0.1,0.2-0.3,0.4-0.6,0.5c-0.3,0.1-0.6,0.1-1,0.1h-9.9v9h14.4c0.4,0,0.7,0,1,0.1
		c0.3,0.1,0.5,0.2,0.6,0.5c0.1,0.3,0.2,0.6,0.2,1.2c0,0.5-0.1,0.9-0.2,1.2c-0.1,0.3-0.4,0.4-0.6,0.5c-0.3,0.1-0.6,0.1-1,0.1H13.5z"
		/>
	<path class="st2" d="M50.5,47c-0.7,0-1.2-0.1-1.7-0.4c-0.5-0.3-0.9-0.7-1-1.3c-0.1-0.4-0.1-0.8-0.1-1.2v-8.7c0-1-0.2-1.8-0.5-2.5
		c-0.3-0.6-0.7-1.1-1.3-1.5c-0.6-0.3-1.3-0.5-2.2-0.5c-0.9,0-1.7,0.2-2.3,0.5c-0.6,0.4-1.1,0.8-1.5,1.5c-0.4,0.7-0.5,1.5-0.5,2.4
		v8.7c0,0.5-0.1,0.9-0.2,1.3c-0.2,0.5-0.5,1-1,1.2c-0.4,0.2-1,0.3-1.6,0.3c-0.7,0-1.3-0.1-1.7-0.4c-0.5-0.3-0.9-0.7-1-1.3
		c-0.1-0.3-0.1-0.7-0.1-1.2V28.3c0-0.5,0-0.8,0.1-1.2c0.1-0.4,0.4-0.9,1.1-1.2c0.4-0.2,1-0.3,1.6-0.3c0.5,0,1,0.1,1.3,0.2
		c0.4,0.2,0.8,0.5,1,0.8c0.1,0.2,0.2,0.4,0.3,0.6c0.2-0.2,0.5-0.4,0.8-0.5c0.6-0.4,1.3-0.7,2-0.9c0.7-0.2,1.5-0.3,2.3-0.3
		c1.3,0,2.5,0.2,3.6,0.7c1.1,0.5,2.1,1.2,2.9,2.1c0.8,0.9,1.4,2,1.9,3.2c0.4,1.2,0.6,2.6,0.6,4.1v8.7c0,0.5,0,0.9-0.1,1.2
		c-0.1,0.6-0.5,1-1,1.3C51.8,46.9,51.3,47,50.5,47z"/>
	<path class="st3" d="M36.6,45.9c-0.5,0-0.9-0.1-1.1-0.2C35.2,45.5,35,45.3,35,45c-0.1-0.3-0.1-0.6-0.1-1V28.3c0-0.3,0-0.6,0.1-0.9
		c0.1-0.2,0.2-0.4,0.5-0.6c0.3-0.1,0.7-0.2,1.2-0.2c0.4,0,0.7,0,0.9,0.1c0.2,0.1,0.4,0.2,0.5,0.4c0.1,0.2,0.2,0.3,0.2,0.5
		c0,0.2,0,0.4,0,0.5L38.2,30c0.3-0.5,0.6-0.9,1-1.3c0.4-0.4,0.9-0.8,1.4-1.1c0.5-0.3,1.1-0.6,1.7-0.8c0.6-0.2,1.3-0.3,2-0.3
		c1.2,0,2.2,0.2,3.2,0.6c1,0.4,1.8,1,2.5,1.8c0.7,0.8,1.2,1.7,1.6,2.8c0.4,1.1,0.6,2.3,0.6,3.7v8.7c0,0.4,0,0.7-0.1,1
		c-0.1,0.3-0.2,0.5-0.5,0.6c-0.3,0.1-0.6,0.2-1.2,0.2c-0.5,0-0.9-0.1-1.2-0.2c-0.3-0.1-0.4-0.4-0.5-0.6c-0.1-0.3-0.1-0.6-0.1-1v-8.7
		c0-1.1-0.2-2.1-0.6-2.9c-0.4-0.8-0.9-1.5-1.7-1.9c-0.7-0.5-1.7-0.7-2.8-0.7c-1.1,0-2,0.2-2.9,0.7c-0.8,0.5-1.4,1.1-1.9,1.9
		c-0.4,0.8-0.7,1.8-0.7,2.9v8.7c0,0.4,0,0.7-0.1,1c-0.1,0.3-0.2,0.5-0.5,0.6C37.5,45.8,37.1,45.9,36.6,45.9z"/>
</g>
<path class="st4" d="M49.2,9c0.2,0,0.4,0.2,0.4,0.4v6.4c0,0.2-0.2,0.4-0.4,0.4c-0.2,0-0.4-0.2-0.4-0.4V9.5C48.8,9.2,49,9,49.2,9z
	 M49.2,17.1c0.2,0,0.4,0.2,0.4,0.4v0c0,0.2-0.2,0.4-0.4,0.4c-0.2,0-0.4-0.2-0.4-0.4v0C48.8,17.3,49,17.1,49.2,17.1z M50.3,6.7h-12
	C37.6,6.7,37,7.3,37,8v14.4c0,0.7,0.6,1.3,1.3,1.3c0.3,0,0.5-0.1,0.7-0.2l5.3-3.4v0l5.3,3.4c0.2,0.1,0.5,0.2,0.7,0.2
	c0.7,0,1.3-0.6,1.3-1.3V8C51.6,7.3,51,6.7,50.3,6.7L50.3,6.7z"/>
</svg>
