<?xml version="1.0" encoding="utf-8"?>
<!-- Generator: Adobe Illustrator 24.1.2, SVG Export Plug-In . SVG Version: 6.00 Build 0)  -->
<svg version="1.1" id="Layer_1" xmlns="http://www.w3.org/2000/svg" xmlns:xlink="http://www.w3.org/1999/xlink" x="0px" y="0px"
	 viewBox="0 0 55 55" style="enable-background:new 0 0 55 55;" xml:space="preserve">
<style type="text/css">
	.st0{fill:#8AF9CE;stroke:#036858;stroke-width:2;stroke-miterlimit:10;}
	.st1{fill:#8AF9CE;stroke:#E9FAFF;stroke-width:2;stroke-miterlimit:10;}
	.st2{fill:#FFFFFF;}
	.st3{fill:#036858;}
	.st4{fill:#E9FAFF;}
</style>
<path class="st0" d="M48,54H7c-3.3,0-6-2.7-6-6V7c0-3.3,2.7-6,6-6h41c3.3,0,6,2.7,6,6v41C54,51.3,51.3,54,48,54z"/>
<path class="st1" d="M7,52c-2.2,0-4-1.8-4-4V7c0-2.2,1.8-4,4-4h41c2.2,0,4,1.8,4,4v41c0,2.2-1.8,4-4,4H7z"/>
<g>
	<path class="st2" d="M9,42.5c-0.7,0-1.3-0.1-1.7-0.4c-0.5-0.3-0.8-0.7-1-1.3c-0.1-0.4-0.2-0.8-0.2-1.3V15.4c0-1,0.3-1.7,0.8-2.2
		c0.5-0.5,1.2-0.7,2.2-0.7h16c0.5,0,0.9,0.1,1.3,0.2c0.6,0.2,1,0.5,1.3,1.1c0.2,0.4,0.3,1,0.3,1.7c0,0.7-0.1,1.3-0.4,1.7
		c-0.3,0.5-0.7,0.8-1.2,1c-0.4,0.1-0.8,0.2-1.3,0.2H11.9v6.1h8.9c0.5,0,0.9,0.1,1.3,0.2c0.5,0.2,0.9,0.5,1.2,1
		c0.2,0.4,0.3,0.9,0.3,1.6c0,0.7-0.1,1.2-0.3,1.6c-0.3,0.5-0.7,0.8-1.3,1c-0.4,0.1-0.8,0.1-1.2,0.1h-8.8v6.9h13.3
		c0.5,0,0.9,0.1,1.3,0.2c0.5,0.2,1,0.5,1.2,1c0.2,0.4,0.3,1,0.3,1.7c0,0.7-0.1,1.3-0.4,1.7c-0.3,0.5-0.7,0.8-1.2,1
		c-0.4,0.1-0.8,0.2-1.3,0.2H9z"/>
	<path class="st3" d="M9,41.4c-0.5,0-0.9-0.1-1.2-0.2c-0.3-0.1-0.4-0.4-0.5-0.6c-0.1-0.3-0.1-0.6-0.1-1V15.4c0-0.7,0.1-1.1,0.4-1.4
		c0.3-0.3,0.8-0.4,1.5-0.4h16c0.4,0,0.7,0,1,0.1c0.3,0.1,0.5,0.3,0.6,0.5s0.2,0.7,0.2,1.2c0,0.5-0.1,0.9-0.2,1.2
		c-0.1,0.3-0.4,0.4-0.6,0.5c-0.3,0.1-0.6,0.1-1,0.1H10.8v8.3h10c0.4,0,0.7,0,0.9,0.1c0.3,0.1,0.4,0.2,0.6,0.5
		c0.1,0.2,0.2,0.6,0.2,1.1c0,0.5-0.1,0.8-0.2,1.1c-0.1,0.2-0.3,0.4-0.6,0.5c-0.3,0.1-0.6,0.1-1,0.1h-9.9v9h14.4c0.4,0,0.7,0,1,0.1
		c0.3,0.1,0.5,0.2,0.6,0.5c0.1,0.3,0.2,0.6,0.2,1.2c0,0.5-0.1,0.9-0.2,1.2c-0.1,0.3-0.4,0.4-0.6,0.5c-0.3,0.1-0.6,0.1-1,0.1H9z"/>
	<path class="st2" d="M46,42.5c-0.7,0-1.2-0.1-1.7-0.4c-0.5-0.3-0.9-0.7-1-1.3c-0.1-0.4-0.1-0.8-0.1-1.2v-8.7c0-1-0.2-1.8-0.5-2.5
		c-0.3-0.6-0.7-1.1-1.3-1.5c-0.6-0.3-1.3-0.5-2.2-0.5c-0.9,0-1.7,0.2-2.3,0.5c-0.6,0.4-1.1,0.8-1.5,1.5c-0.4,0.7-0.5,1.5-0.5,2.4
		v8.7c0,0.5-0.1,0.9-0.2,1.3c-0.2,0.5-0.5,1-1,1.2c-0.4,0.2-1,0.3-1.6,0.3c-0.7,0-1.3-0.1-1.7-0.4c-0.5-0.3-0.9-0.7-1-1.3
		c-0.1-0.3-0.1-0.7-0.1-1.2V23.8c0-0.5,0-0.8,0.1-1.2c0.1-0.4,0.4-0.9,1.1-1.2c0.4-0.2,1-0.3,1.6-0.3c0.5,0,1,0.1,1.3,0.2
		c0.4,0.2,0.8,0.5,1,0.8c0.1,0.2,0.2,0.4,0.3,0.6c0.2-0.2,0.5-0.4,0.8-0.5c0.6-0.4,1.3-0.7,2-0.9c0.7-0.2,1.5-0.3,2.3-0.3
		c1.3,0,2.5,0.2,3.6,0.7c1.1,0.5,2.1,1.2,2.9,2.1c0.8,0.9,1.4,2,1.9,3.2c0.4,1.2,0.6,2.6,0.6,4.1v8.7c0,0.5,0,0.9-0.1,1.2
		c-0.1,0.6-0.5,1-1,1.3C47.3,42.4,46.8,42.5,46,42.5z"/>
	<path class="st3" d="M32.1,41.4c-0.5,0-0.9-0.1-1.1-0.2c-0.3-0.1-0.4-0.4-0.5-0.6c-0.1-0.3-0.1-0.6-0.1-1V23.8c0-0.3,0-0.6,0.1-0.9
		c0.1-0.2,0.2-0.4,0.5-0.6c0.3-0.1,0.7-0.2,1.2-0.2c0.4,0,0.7,0,0.9,0.1c0.2,0.1,0.4,0.2,0.5,0.4c0.1,0.2,0.2,0.3,0.2,0.5
		c0,0.2,0,0.4,0,0.5l-0.1,1.8c0.3-0.5,0.6-0.9,1-1.3c0.4-0.4,0.9-0.8,1.4-1.1c0.5-0.3,1.1-0.6,1.7-0.8c0.6-0.2,1.3-0.3,2-0.3
		c1.2,0,2.2,0.2,3.2,0.6c1,0.4,1.8,1,2.5,1.8c0.7,0.8,1.2,1.7,1.6,2.8c0.4,1.1,0.6,2.3,0.6,3.7v8.7c0,0.4,0,0.7-0.1,1
		c-0.1,0.3-0.2,0.5-0.5,0.6c-0.3,0.1-0.6,0.2-1.2,0.2c-0.5,0-0.9-0.1-1.2-0.2c-0.3-0.1-0.4-0.4-0.5-0.6c-0.1-0.3-0.1-0.6-0.1-1v-8.7
		c0-1.1-0.2-2.1-0.6-2.9c-0.4-0.8-0.9-1.5-1.7-1.9c-0.7-0.5-1.7-0.7-2.8-0.7c-1.1,0-2,0.2-2.9,0.7c-0.8,0.5-1.4,1.1-1.9,1.9
		c-0.4,0.8-0.7,1.8-0.7,2.9v8.7c0,0.4,0,0.7-0.1,1c-0.1,0.3-0.2,0.5-0.5,0.6C33,41.3,32.6,41.4,32.1,41.4z"/>
</g>
<path class="st4" d="M44.7,4.5c0.2,0,0.4,0.2,0.4,0.4v6.4c0,0.2-0.2,0.4-0.4,0.4c-0.2,0-0.4-0.2-0.4-0.4V5
	C44.3,4.7,44.5,4.5,44.7,4.5z M44.7,12.6c0.2,0,0.4,0.2,0.4,0.4v0c0,0.2-0.2,0.4-0.4,0.4c-0.2,0-0.4-0.2-0.4-0.4v0
	C44.3,12.8,44.5,12.6,44.7,12.6z M45.8,2.2h-12c-0.7,0-1.3,0.6-1.3,1.3V18c0,0.7,0.6,1.3,1.3,1.3c0.3,0,0.5-0.1,0.7-0.2l5.3-3.4v0
	l5.3,3.4c0.2,0.1,0.5,0.2,0.7,0.2c0.7,0,1.3-0.6,1.3-1.3V3.5C47.1,2.8,46.5,2.2,45.8,2.2L45.8,2.2z"/>
</svg>
