<?xml version="1.0" encoding="utf-8"?>
<!-- Generator: Adobe Illustrator 24.1.2, SVG Export Plug-In . SVG Version: 6.00 Build 0)  -->
<svg version="1.1" id="Layer_1" xmlns="http://www.w3.org/2000/svg" xmlns:xlink="http://www.w3.org/1999/xlink" x="0px" y="0px"
	 viewBox="0 0 31.9 32" style="enable-background:new 0 0 31.9 32;" xml:space="preserve">
<style type="text/css">
	.st0{fill:url(#SVGID_1_);}
	.st1{fill:url(#SVGID_2_);}
</style>
<g>
	<linearGradient id="SVGID_1_" gradientUnits="userSpaceOnUse" x1="9.3955" y1="25.7676" x2="9.3955" y2="7.2827">
		<stop  offset="0" style="stop-color:#499543"/>
		<stop  offset="6.098367e-02" style="stop-color:#69BD45"/>
		<stop  offset="0.5279" style="stop-color:#96D6D6"/>
		<stop  offset="1" style="stop-color:#98D7DD"/>
	</linearGradient>
	<path class="st0" d="M14,17.2H6v6.6h9.3v2H3.5V7.3h11.6v2H6v6h8V17.2z"/>
	<linearGradient id="SVGID_2_" gradientUnits="userSpaceOnUse" x1="23.3354" y1="25.7676" x2="23.3354" y2="11.7769">
		<stop  offset="0" style="stop-color:#499543"/>
		<stop  offset="6.098367e-02" style="stop-color:#69BD45"/>
		<stop  offset="1" style="stop-color:#AFF7FF"/>
	</linearGradient>
	<path class="st1" d="M20.2,12l0.1,1.7c1-1.3,2.4-2,4.1-2c2.9,0,4.4,1.6,4.4,4.9v9.1h-2.3v-9.1c0-1-0.2-1.7-0.7-2.2
		c-0.4-0.5-1.1-0.7-2.1-0.7c-0.8,0-1.4,0.2-2,0.6s-1,0.9-1.3,1.6v9.8h-2.3V12H20.2z"/>
</g>
</svg>
